<?xml version="1.0" encoding="utf-8"?>
<!-- Generator: Adobe Illustrator 21.0.0, SVG Export Plug-In . SVG Version: 6.00 Build 0)  -->
<svg version="1.1" id="圖層_1" xmlns="http://www.w3.org/2000/svg" xmlns:xlink="http://www.w3.org/1999/xlink" x="0px" y="0px"
	 viewBox="0 0 120 120" style="enable-background:new 0 0 120 120;" xml:space="preserve">
<style type="text/css">
	.st0{fill:#c1b4a1;}
</style>
<g>
	<path class="st0" d="M60,63.8c-10.9,0-21.8,0-32.8,0c-0.5,0-0.9,0-1.4-0.2c-0.8-0.2-1.3-0.9-1.1-1.6c0.1-0.6,0.7-1.1,1.2-1.4
		c0.3-0.2,0.8-0.1,1.2-0.1c21.9,0,43.8,0,65.7,0c0.3,0,0.7,0,1,0c0.9,0.1,1.5,0.7,1.5,1.6c0,0.9-0.5,1.5-1.4,1.7
		c-0.4,0.1-0.8,0.1-1.2,0.1C81.8,63.8,70.9,63.8,60,63.8"/>
	<path class="st0" d="M60,97.4c-6.1-0.1-10.6-5.6-9.4-11.6C51.5,81,54,76.9,57,73.1c0.6-0.7,1.1-1.4,1.8-2.1c0.8-0.9,1.8-0.9,2.5,0
		c3.5,4.1,6.6,8.5,7.9,13.8c1.5,5.8-1.6,11.1-7.2,12.4C61.4,97.3,60.7,97.3,60,97.4 M60,74.6c-2.9,3.8-5.5,7.5-6.2,12.1
		c-0.4,2.7,0.5,4.8,2.8,6.4c2.1,1.4,4.9,1.4,6.9,0c2.2-1.6,3.2-3.7,2.7-6.4C65.4,82,62.8,78.3,60,74.6"/>
	<path class="st0" d="M90.2,82.8c0,4.6-3.7,8.1-7.9,7.7c-4.3-0.4-7.4-4.2-6.8-8.4c0.5-3.7,2.4-6.7,4.6-9.6c0.4-0.6,0.9-1.2,1.5-1.7
		c0.7-0.7,1.7-0.8,2.4,0c2.8,3.3,5.3,6.8,6.1,11.2C90.2,82.3,90.2,82.7,90.2,82.8 M82.7,74.3c-1.1,2-2.2,3.7-3.1,5.6
		c-0.5,0.9-0.7,2.1-0.8,3.1c-0.2,1.7,0.7,3,2.2,3.8c1.4,0.7,2.9,0.6,4.2-0.4c1.4-1,1.9-2.4,1.6-4.1C86.3,79.4,84.7,76.9,82.7,74.3"
		/>
	<path class="st0" d="M61.7,27.6V29v22.2c0,0.4,0,0.7,0,1.1c-0.1,1-0.8,1.7-1.7,1.6c-1-0.1-1.5-0.7-1.6-1.6c-0.1-0.4,0-0.7,0-1.1V29
		v-1.4c-0.8,0.6-1.4,1.1-2.1,1.5c-1,0.7-1.9,0.6-2.5-0.2c-0.6-0.8-0.4-1.8,0.5-2.5c1.5-1.1,3-2.3,4.5-3.4c0.8-0.6,1.6-0.7,2.5,0
		c1.5,1.1,3,2.3,4.5,3.4c0.9,0.7,1.1,1.7,0.6,2.5c-0.6,0.8-1.7,0.8-2.6,0.1C63.1,28.6,62.5,28.2,61.7,27.6"/>
	<path class="st0" d="M35.5,27.6c-0.9,0.7-1.5,1.2-2.2,1.6c-0.9,0.6-1.9,0.5-2.4-0.3c-0.5-0.7-0.4-1.6,0.4-2.3
		c1.6-1.3,3.2-2.5,4.8-3.7c0.7-0.5,1.4-0.5,2.1,0c1.6,1.2,3.2,2.4,4.8,3.7c0.8,0.6,0.9,1.6,0.4,2.3c-0.5,0.7-1.5,0.8-2.3,0.3
		c-0.4-0.2-0.7-0.5-1-0.8c-0.3-0.2-0.7-0.5-1.2-0.9v1.4v22c0,0.3,0,0.7,0,1c0,1.2-0.6,1.9-1.6,1.9c-1,0-1.7-0.7-1.7-2
		c0-4.8,0-9.6,0-14.4V27.6z"/>
	<path class="st0" d="M81.2,27.6c-0.8,0.6-1.4,1.1-2,1.5c-1,0.7-2,0.7-2.6-0.1c-0.6-0.8-0.4-1.8,0.6-2.5c1.4-1.1,2.9-2.2,4.3-3.3
		c0.9-0.7,1.7-0.8,2.6,0c1.5,1.1,2.9,2.2,4.4,3.4c1,0.8,1.2,1.6,0.6,2.4c-0.6,0.8-1.6,0.9-2.6,0.2c-0.6-0.4-1.2-0.9-2-1.5v1.3v22.6
		c0,0.4,0,0.7-0.1,1.1c-0.2,0.9-0.8,1.4-1.7,1.3c-0.8-0.1-1.4-0.6-1.5-1.5c0-0.4,0-0.8,0-1.2V29V27.6z"/>
	<path class="st0" d="M37.1,74.5c-0.5,0.7-0.9,1.3-1.3,1.8c-0.6,0.7-1.5,0.9-2.2,0.4c-0.8-0.5-1-1.5-0.4-2.3
		c0.8-1.2,1.8-2.4,2.7-3.5c0.7-0.8,1.8-0.8,2.5,0c2.9,3.4,5.4,6.9,6.1,11.5c0.6,4-2.6,7.9-6.8,8.2c-4,0.3-7.8-3.1-7.8-7
		c0-1.2,0.6-1.9,1.5-2c0.9-0.1,1.6,0.6,1.7,1.8c0.2,2.2,1.7,3.7,3.7,3.9c1.9,0.2,3.7-0.9,4.1-2.8c0.3-1,0.2-2.3-0.1-3.3
		C40.2,78.7,38.8,76.6,37.1,74.5"/>
	<path class="st0" d="M117.4,48.9l-0.3-0.7c-1.1-2.3-2.1-4.5-1.8-6.9c0-0.3,0-0.5,0-0.5c-1.2-9.5-6.1-16.6-14.4-21.2
		c-0.2-0.1-0.5-0.4-0.6-0.6C95,9.4,86.7,4.5,75.6,4.5c-0.5,0-1-0.1-1.4-0.3c-9.4-5.5-19-5.5-28.4,0c-0.4,0.2-0.9,0.4-1.3,0.4h0h-0.2
		c-11,0-19.3,4.9-24.7,14.5c-0.2,0.3-0.4,0.5-0.6,0.6C9.5,24.9,4.6,33.2,4.5,44.3c0,0.5-0.2,1.2-0.5,1.7c-5.2,9-5.4,18.1-0.5,27.2
		l0.1,0.2c0.7,1.3,1.1,2.1,0.8,3.2l0,0.2l0,0.2C5,87.3,9.8,95.1,18.7,100.2c0.4,0.2,0.8,0.6,1,0.9c5.4,9.5,13.6,14.4,24.6,14.4
		c0.5,0,1.1,0.2,1.5,0.4c4.7,2.7,9.4,4.1,14.1,4.1c4.6,0,9.3-1.3,13.9-3.8c0.7-0.4,1.5-0.6,2.1-0.6c10.8-0.1,19-4.9,24.3-14.4
		c0.2-0.3,0.4-0.6,0.7-0.7c9.5-5.3,14.4-13.6,14.5-24.5c0-0.6,0.2-1.4,0.5-1.9C120.8,65.8,121.3,57.3,117.4,48.9 M21.9,25
		c1.4-0.7,2.3-1.5,2.9-2.8c3.9-7.5,10-11.3,18.7-11.7c2.4,0.6,4.3-0.5,5.8-1.4c7.4-4.3,14.9-4.1,22.2,0.6c1.1,0.7,2.3,1,3.5,1
		c9.2-0.4,16,3.6,20.3,12c0.4,0.8,1.2,1.6,2,2c6.7,3.3,10.7,8.7,11.8,16.1c0.1,0.8,0.1,1.7,0.1,2.6c0,0.7,0,1.4,0,2.1
		c0.1,0.8,0.3,1.8,0.8,2.7c5,7.5,5,16.2,0.1,23.7c-0.6,0.9-0.9,2.1-0.8,3.2c0.3,6-1.4,11.1-5.4,15.5c-1.8,2-3.9,3.6-6.2,4.6
		c-1.2,0.6-2.1,1.4-2.6,2.6c-3.7,7.7-11.4,12.1-20.1,11.7c-1.2-0.1-2.4,0.3-3.3,0.9c-7.3,4.9-16.1,4.9-23.5,0c-0.9-0.6-2.2-1-3.3-1
		c-0.3,0-0.7,0-1,0c-8.9,0-15.3-4-19.4-12.1c-0.4-0.8-1.3-1.6-2.2-2.1c-6-3-9.8-7.8-11.3-14.2c-0.4-1.8-0.4-3.8-0.4-5.9
		c0-1.1-0.1-2.4-1-3.8c-4.8-7-4.8-16.1,0-23.1c0.8-1.2,1.1-2.4,1-3.7C9.9,36.4,14.4,28.5,21.9,25"/>
</g>
</svg>
