<?xml version="1.0" encoding="utf-8"?>
<!-- Generator: Adobe Illustrator 21.0.0, SVG Export Plug-In . SVG Version: 6.00 Build 0)  -->
<svg version="1.1" id="圖層_1" xmlns="http://www.w3.org/2000/svg" xmlns:xlink="http://www.w3.org/1999/xlink" x="0px" y="0px"
	 viewBox="0 0 120 120" style="enable-background:new 0 0 120 120;" xml:space="preserve">
<style type="text/css">
	.st0{fill:#c1b4a1;}
</style>
<g>
	<path class="st0" d="M81.4,53.3c9.7-5.6,19.2-11.1,28.7-16.6l-3-5.5C97.9,36.5,89,41.6,80,46.9c-0.6-6.6,0.9-12.2,4.7-17.3
		c1.4-1.8,1.2-3.7-0.3-4.8c-1.5-1.2-3.4-0.7-4.8,1.1c-5.1,7-7.2,14.7-5.7,23.3c0.1,0.4-0.1,1.1-0.4,1.3c-4,2.4-8.1,4.7-12.3,7.1
		c-3.8-5.7-5-11.8-3.7-18.4c0.7-3.7,2.3-7,4.6-10c1.2-1.6,0.9-3.5-0.5-4.5c-1.4-1.1-3.2-0.7-4.5,0.9C52,32.3,50,39.9,51.1,48.3
		c0.6,4.5,2.3,8.7,4.8,12.5c-3.9,2.2-7.6,4.4-11.1,6.4c-2.4-3.7-4.8-7.2-7-10.8c-3.1-5-4-10.5-3.1-16.3c0.7-3.9,2.3-7.4,4.7-10.6
		c1.2-1.7,1-3.6-0.4-4.6c-1.5-1.1-3.3-0.7-4.5,0.9c-5.3,7-7.4,14.9-5.9,23.7c0.9,5.4,3.5,10.1,6.7,14.4c1.5,2.1,2.6,4.5,3.8,6.8
		c-10,5.8-19.6,11.3-29.4,17l3.3,5.4c8.9-5.1,17.8-10.3,26.8-15.5c0.3,2.9-0.1,5.6-1.2,8.1c-1,2.3-2.3,4.5-3.5,6.6
		c-0.7,1.1-1.2,2.2-0.8,3.5c0.8,2.2,3.8,2.8,5.3,0.9c3.5-4.2,5.6-9.1,6.3-14.5c0.3-2.3,0.1-4.7,0.1-7.1c0-0.4,0.1-1.1,0.4-1.3
		c4.3-2.5,8.6-5,13-7.6c2.5,4.4,3.5,9,3,13.9c-0.4,4.5-2.1,8.6-4.8,12.2c-0.5,0.7-0.9,1.8-0.9,2.7c0,1.3,0.8,2.3,2,2.6
		c1.4,0.5,2.6,0.1,3.6-1.1c2.8-3.6,4.8-7.6,5.8-12c1.5-7,0.7-13.7-2.6-20.1c-0.2-0.4-0.3-0.9-0.6-1.4c3.7-2.1,7.4-4.2,11.1-6.4
		c2.6,5.5,7.4,9.7,8.6,16c1.4,7,0.2,13.4-3.9,19.3c-0.6,0.9-1.2,2.1-1.3,3.2c-0.1,1.3,0.8,2.3,2.2,2.7c1.4,0.3,2.5,0,3.4-1.1
		c3-3.9,5-8.1,5.9-12.9c1.6-8.6-0.2-16.3-5.3-23.4C84.3,57.9,82.9,55.7,81.4,53.3 M117.4,48.9l-0.3-0.7c-1.1-2.3-2.1-4.5-1.8-6.9
		c0-0.3,0-0.5,0-0.6c-1.2-9.5-6.1-16.6-14.4-21.2c-0.2-0.1-0.5-0.4-0.6-0.6C95,9.4,86.7,4.5,75.6,4.5c-0.5,0-1-0.1-1.4-0.3
		c-9.4-5.5-19-5.5-28.4,0c-0.4,0.2-0.9,0.4-1.3,0.4h0h-0.2c-11,0-19.3,4.9-24.7,14.5c-0.2,0.3-0.4,0.5-0.6,0.7
		C9.5,24.9,4.6,33.2,4.5,44.3c0,0.5-0.2,1.2-0.5,1.7c-5.2,9-5.4,18.1-0.5,27.2l0.1,0.2c0.7,1.3,1.1,2.1,0.8,3.2l0,0.1l0,0.2
		C5,87.3,9.8,95.1,18.7,100.2c0.4,0.2,0.8,0.6,1,0.9c5.4,9.5,13.6,14.4,24.6,14.4c0.5,0,1.1,0.1,1.5,0.4c4.7,2.7,9.4,4.1,14.1,4.1
		c4.6,0,9.3-1.3,13.9-3.8c0.7-0.4,1.5-0.6,2.1-0.6c10.8-0.1,19-4.9,24.3-14.4c0.2-0.3,0.4-0.6,0.7-0.7c9.5-5.4,14.4-13.6,14.5-24.5
		c0-0.6,0.2-1.4,0.5-1.9C120.8,65.8,121.3,57.3,117.4,48.9 M21.9,24.9c1.4-0.7,2.3-1.5,2.9-2.8c3.9-7.5,10-11.3,18.7-11.7
		c2.4,0.6,4.3-0.5,5.8-1.4c7.4-4.3,14.9-4.1,22.2,0.6c1.1,0.7,2.3,1,3.5,1c9.2-0.4,16,3.6,20.3,12c0.4,0.8,1.2,1.6,2,2
		c6.7,3.3,10.7,8.7,11.8,16.1c0.1,0.8,0.1,1.7,0.1,2.6c0,0.7,0,1.4,0,2.1c0.1,0.8,0.3,1.8,0.8,2.7c5,7.5,5,16.2,0.1,23.7
		c-0.6,0.9-0.9,2.1-0.8,3.2c0.3,6-1.4,11.1-5.4,15.5c-1.8,2-3.9,3.6-6.2,4.6c-1.2,0.6-2.1,1.4-2.6,2.6c-3.7,7.7-11.4,12.1-20.1,11.7
		c-1.2-0.1-2.4,0.3-3.3,0.9c-7.3,4.9-16.1,4.9-23.5,0c-0.9-0.6-2.2-1-3.3-1c-0.3,0-0.7,0-1,0c-8.9,0-15.3-4-19.4-12.1
		c-0.4-0.8-1.3-1.6-2.2-2.1c-6-3-9.8-7.8-11.3-14.1c-0.4-1.8-0.4-3.8-0.4-5.9c0-1.1-0.1-2.4-1-3.8c-4.8-7-4.8-16.1,0-23.1
		c0.8-1.2,1.1-2.4,1-3.7C9.9,36.4,14.4,28.5,21.9,24.9"/>
</g>
</svg>
