<?xml version="1.0" encoding="utf-8"?>
<!-- Generator: Adobe Illustrator 21.0.0, SVG Export Plug-In . SVG Version: 6.00 Build 0)  -->
<svg version="1.1" id="圖層_1" xmlns="http://www.w3.org/2000/svg" xmlns:xlink="http://www.w3.org/1999/xlink" x="0px" y="0px"
	 viewBox="0 0 120 120" style="enable-background:new 0 0 120 120;" xml:space="preserve">
<g>
	<path d="M45.9,72.4c-0.8-0.7-1.4-1.2-2-1.9c-0.3-0.3-0.5-0.7-0.8-1c0.4-0.2,0.7-0.5,1.1-0.6c3.6-1,7.1-2,10.7-3
		c1-0.3,1.3,0,1.2,1.1c-0.6,3.7-1.2,7.4-1.8,11.1c0,0.1,0,0.3-0.1,0.4C54,78.6,53.9,79,53.7,79c-0.2,0.1-0.6-0.1-0.8-0.3
		c-0.7-0.6-1.4-1.2-2.1-1.9c-0.3-0.3-0.5-0.3-0.8,0c-8.5,6.2-20.9,4.3-27-4.2c-2.4-3.3-3.4-7-3.5-11c-0.1-4.1,0.4-8.1,2.4-11.9
		c2.3-4.4,5.9-7.2,10.5-8.7c2.8-0.9,5.7-1.3,8.7-0.9c5.2,0.7,9.5,3,13,6.8c3.2,3.5,5.7,7.4,7.9,11.6c1.3,2.5,2.5,5,4.2,7.3
		c2.6,3.7,5.9,6.4,10.2,7.9c4,1.3,7.9,1.3,11.6-1c2.2-1.4,3.6-3.5,4.4-5.9c1.2-3.8,1.2-7.7,0.2-11.5c-1.2-4.5-4.3-7.2-8.8-8.4
		c-1-0.3-2.1-0.5-3.1-0.5c-4.1-0.2-7.6,1.3-10.7,4c-1.6,1.4-3,3.1-4.3,4.8c-0.5,0.7-0.9,0.7-1.4-0.1c-0.8-1.4-1.7-2.8-2.4-4.2
		c-0.1-0.2-0.1-0.7,0.1-0.8c3-3.8,6.6-6.9,11.2-8.7c7.8-3,17.5-0.1,22.1,5.8c2.2,2.9,3.5,6.1,4,9.7c0.6,4.4,0.3,8.7-1.3,12.9
		c-2.6,6.7-9.1,11.2-16.3,11.2c-6.4,0-11.7-2.5-16.4-6.7c-3.5-3.1-5.9-7-8-11.1c-1.8-3.6-3.7-7-6.3-10.1c-1.7-2.1-3.5-3.9-6-5.1
		c-5.3-2.4-10.3-2-15,1.5c-1.7,1.3-2.8,3.1-3.4,5.1c-1.1,3.5-1.3,7.1-0.4,10.6c1,4.4,3.9,7.2,8.1,8.6c3.2,1,6.5,1,9.7-0.3
		C44.6,73.1,45.2,72.7,45.9,72.4z"/>
	<g>
		<path d="M117.4,49.4l-0.3-0.7c-1.1-2.3-2.1-4.5-1.8-7c0-0.3,0-0.5,0-0.6c-1.2-9.6-6.1-16.7-14.5-21.3c-0.2-0.1-0.5-0.4-0.6-0.6
			C94.8,9.6,86.4,4.7,75.3,4.7c-0.5,0-1-0.1-1.4-0.3c-9.5-5.6-19.1-5.6-28.6,0c-0.4,0.2-0.9,0.4-1.3,0.4h0h-0.2
			C32.8,4.7,24.4,9.6,19,19.2c-0.2,0.3-0.4,0.5-0.6,0.7C8.7,25.2,3.7,33.5,3.7,44.7c0,0.5-0.2,1.2-0.5,1.7c-5.2,9-5.4,18.2-0.5,27.4
			l0.1,0.2c0.7,1.3,1.1,2.1,0.8,3.2l0,0.2l0,0.2C4.2,87.9,9,95.8,18,100.9c0.4,0.2,0.8,0.6,1,0.9c5.4,9.6,13.7,14.5,24.8,14.5
			c0.5,0,1.1,0.2,1.6,0.4c4.7,2.7,9.4,4.1,14.2,4.1c4.6,0,9.3-1.3,14-3.9c0.7-0.4,1.5-0.6,2.2-0.6c10.9-0.1,19.1-5,24.5-14.5
			c0.2-0.3,0.4-0.6,0.7-0.7c9.6-5.4,14.5-13.7,14.6-24.6c0-0.6,0.2-1.4,0.5-1.9C120.8,66.3,121.3,57.8,117.4,49.4 M21.2,25.2
			c1.4-0.7,2.3-1.5,2.9-2.8C28,14.9,34.2,11,43,10.7c2.4,0.6,4.3-0.5,5.8-1.4c7.5-4.3,15-4.1,22.4,0.6c1.1,0.7,2.3,1,3.6,1
			c9.3-0.4,16.1,3.6,20.5,12.1c0.4,0.8,1.2,1.6,2,2c6.8,3.3,10.8,8.8,11.9,16.2c0.1,0.8,0.1,1.7,0.1,2.6c0,0.7,0,1.4,0,2.1
			c0.1,0.8,0.3,1.9,0.8,2.7c5,7.6,5,16.3,0.1,23.8c-0.6,0.9-0.9,2.1-0.9,3.2c0.3,6.1-1.4,11.2-5.4,15.6c-1.8,2-3.9,3.6-6.3,4.7
			c-1.2,0.6-2.1,1.4-2.7,2.6c-3.7,7.8-11.5,12.2-20.2,11.7c-1.2-0.1-2.4,0.3-3.3,0.9c-7.4,4.9-16.2,4.9-23.6,0c-0.9-0.6-2.2-1-3.3-1
			c-0.4,0-0.7,0-1,0c-9,0-15.4-4-19.6-12.1c-0.4-0.8-1.3-1.6-2.2-2.1c-6.1-3-9.9-7.8-11.4-14.2c-0.4-1.8-0.4-3.9-0.4-5.9
			c0-1.1-0.1-2.5-1-3.8c-4.8-7-4.8-16.2,0-23.2c0.8-1.2,1.1-2.4,1-3.7C9.1,36.8,13.7,28.8,21.2,25.2"/>
	</g>
</g>
</svg>
