<?xml version="1.0" encoding="utf-8"?>
<!-- Generator: Adobe Illustrator 21.0.0, SVG Export Plug-In . SVG Version: 6.00 Build 0)  -->
<svg version="1.1" id="圖層_1" xmlns="http://www.w3.org/2000/svg" xmlns:xlink="http://www.w3.org/1999/xlink" x="0px" y="0px"
	 viewBox="0 0 381.9 55.6" style="enable-background:new 0 0 381.9 55.6;" xml:space="preserve">
<style type="text/css">
	.st0{fill:#FFFFFF;}
	.st1{fill:#FF0000;stroke:#FF0000;stroke-miterlimit:10;}
</style>
<g>
	<path class="st0" d="M376.1,35.4c-4.4-1.6-10.2-0.1-14.5,1c-6.2,1.5-12.2,3.8-18.2,5.9c-12.8-3.6-29.5-8.4-40.2,2.5h-0.1
		c-6.1,2.5-11.1,1.6-15.9-2.5c-2.2-1.9-4.3-4.6-7.2-5.3c-5.8-1.4-9.1,3.6-11.9,7.7c-0.2-1.1-0.6-2.4-0.8-3.2
		c-0.7-2.7-1.8-3.9-4.6-3.6c-2.4,0.3-4.4,1.6-6.1,3.3c-1.1,1.1-2.2,3.1-3.6,3.8c-2.8,1.4-2.5-2.2-4.5-3.1c-1.5-0.7-3.7,0.2-5.1,0.7
		c-4,1.5-7.7,3.8-12,4.6c-3.5,0.7-7.4,0.5-10.7-1.1c-2.3-1.1-3.6-3.2-5.6-4.4c-1.5-0.8-3.1-0.4-4.7,0.2c-8,2.7-16,9.3-24.4,3.4
		c-1.5-1-2.6-2.3-3.5-3.8c10-7.4,16.5-20.6,19-32.3c0.4-1.8,2.1-7.4,0.4-8.7c-1.8-1.3-6.4,0.8-8.1,1.6C182.7,7,175,18,174.6,30
		c-0.2,4.5,0.6,8.8,2.5,12.3c-2,1.3-4.1,2.2-6.9,2.2c-3.5,0-7.5-1-10.5-2.6c-2.8-1.5-3.7-3.4-7-2.6c-0.3,0.1-1,0.3-1.6,0.5l0,0
		c-9.9-3.3-21.3-2.4-30.1,3.5c-6.3,2-12.5,0.2-18.1-3.1c-2.1-1.2-3.2-2.2-5.6-1.5c-0.3,0.1-0.9,0.2-1.4,0.5
		c-10-3.5-21.6-1.6-30.1,4.6c-0.8,0.3-1.6,0.5-2.4,0.7c-2.9,0.5-6,0.6-8.9,0.6c-4.3-0.1-9.6-2.7-13.7-0.7c-1.3,0.7-2.2,1.6-3.1,2.8
		c-0.6,0.9-2.3,3-3.1,4.7c-0.7-0.9-1.9-1.7-2.6-2.6c-1.7-1.9-3.1-4.1-4.6-6.2c-1.5-2.3-3.7-3-6.3-1.1s-2.3,7.1-5,8.9
		c0.9-0.7-1-1.3-1.8-2c-1.3-1.1-2.4-2.4-3.5-3.8c-1-1.3-2-2.7-2.9-4.1c-0.8-1.3-5.7,0.8-5.3,1.4C5.2,46.8,9.4,53.5,15,53
		c2.3-0.2,4.6-1.3,6.1-3c1-1.1,1.6-2.4,2.2-3.8c0.6,1.1,1.2,2.2,1.6,2.7c1.5,2,3.2,4.3,5.4,5.6c2.7,1.6,6.6,1.1,8.6-1.4
		c1.4-1.7,2.1-4.1,3.4-6c0.2-0.3,0.4-0.5,0.6-0.7c1.2,0.3,2.5,0.4,3.6,0.5c6.3,0.8,13.2,0.5,19.4-1.2c7,4.5,15.8,4.5,23.8,2.8
		c3-0.6,6.2-1.9,8.6-3.9c0.5-0.4,1.1-0.9,1.5-1.5c2.4,1.3,5,2.2,7.6,2.8c4.5,0.9,8.9,0.5,13.2-0.7c5.3,5.4,14.3,5.3,21.2,4.1
		c3.4-0.6,6.8-1.5,9.8-3.2c1.8-1,2.5-1.8,3-2.9c7.4,3.8,16,4.8,23.7,0.9c2.7,3.7,6.9,6,12.8,5.8c5.1-0.1,10.2-1.8,14.8-3.8
		c0.8-0.4,3-1.8,4.6-2.5c-0.1,0.4,0.8,1.3,1.1,1.6c1.2,1.3,3.1,2.3,4.8,3c5.3,2.2,11.3,1.7,16.7,0.3c2.5-0.7,4.9-1.5,7.2-2.5
		c1.1-0.5,2.2-1.1,3.3-1.5c2.1-0.8,0.6-0.6,1.4,1.2c1.8,3.8,7.2,2.5,10,0.9c2-1.1,3.5-2.7,5-4.4c0.3-0.4,0.9-0.8,1.3-1.2
		c0.2,0.8,0.7,1.8,0.8,2.3c0.9,4.2,1.6,7.2,6.6,5c1.6-0.7,2.7-1.9,3.7-3.3c0.9-1.3,1.7-2.6,2.6-3.9c0.3-0.5,1.1-1.2,1.3-1.7
		c0,0,0,0,0.1-0.1c4.6,2.8,7.8,7.3,13.3,8.8c5,1.3,9.9,0,14.6-1.8c11.9,5.4,24.4,2.7,36.5-1.1c0.2-0.1,0.5-0.2,0.7-0.2
		c6.7,2,13.5,3.9,20.4,5.2c5.7,1.1,13.1,1.5,16.1-4.5C379.6,42.1,380.7,37.1,376.1,35.4 M88.6,46.9c-4.6,0.8-9.8,0.9-14.1-0.9
		c-1.4-0.6-2.5-1.5-3.8-2.1c6.2-4.1,14-4.8,21.1-2.2c1,0.4,2.3,0.1,3.4-0.4c0.1,0.2,0.2,0.4,0.2,0.7C95.1,45.2,91.1,46.4,88.6,46.9
		 M147.8,45.8c-2.3,1.3-5.2,1.7-7.7,1.9c-5.3,0.4-10.9-0.5-14.7-4.5c3.5-2.2,7.2-3.3,11.4-3.2c3.4,0.1,6.7,0.8,9.9,1.8
		c1,0.3,2.4-0.1,3.4-0.5C149.7,43.2,150.1,44.6,147.8,45.8 M183.3,15.9c2.5-4.7,6.2-8.9,10.7-11.7c0.7-0.5,1.6-0.8,2.3-1.2
		c1.7-1,0.7-0.2,0.7-0.3c0.4,1-0.1,2.6-0.2,3.6c-1.4,11.9-7.2,24-15.8,32.6C178.4,31.6,180.2,21.7,183.3,15.9 M326.3,46.9
		c-5.4,0.8-10.2,0.5-15.3-1.6c-1.2-0.5-2.1-0.9-2.9-1.1c7.7-7.6,20.2-3,29.2-0.5c0.3,0.1,0.6,0.2,0.9,0.2
		C334.2,45.2,330.3,46.3,326.3,46.9 M371.1,48.8c-0.4,0-0.7,0-1-0.1c-2-0.2-4-0.5-5.9-0.9c-6-1.3-11.8-3-17.7-4.6
		c6.2-2.3,12.3-4.9,18.9-5.9c3.3-0.5,8.2-0.8,8.8,3.5C374.4,43.2,373.1,47,371.1,48.8"/>
	<path class="st1" d="M337.7,39.3c5.5,0.4,8.8,2.9,13.8,3.8c0.7,0.1,1.6,0,2.3-0.2c0.1,0,1.6-0.5,1-0.6c-5.2-0.9-8.5-3.5-14.2-3.9
		c-0.8-0.1-1.8,0.1-2.5,0.4C337.8,38.9,336.9,39.3,337.7,39.3"/>
	<path class="st1" d="M327.2,44.7c5.5,0.4,8.8,2.9,13.8,3.8c0.7,0.1,1.6,0,2.3-0.2c0.1,0,1.6-0.5,1-0.6c-5.2-0.9-8.5-3.5-14.2-3.9
		c-0.8-0.1-1.8,0.1-2.5,0.4C327.3,44.3,326.4,44.6,327.2,44.7"/>
</g>
</svg>
