<?xml version="1.0" encoding="utf-8"?>
<!-- Generator: Adobe Illustrator 21.0.0, SVG Export Plug-In . SVG Version: 6.00 Build 0)  -->
<svg version="1.1" id="圖層_1" xmlns="http://www.w3.org/2000/svg" xmlns:xlink="http://www.w3.org/1999/xlink" x="0px" y="0px"
	 viewBox="0 0 120 120" style="enable-background:new 0 0 120 120;" xml:space="preserve">
<style type="text/css">
	.st0{fill:#c1b4a1;}
</style>
<g>
	<path class="st0" d="M105.4,50.4c-0.5,1-1.4,1.6-2.3,2.2c-0.9,0.5-1.6,1.5-2.2,2.5c-1.1,1.9-2.2,3.9-3.2,5.9
		C95.3,66,93,71.2,89.6,75.7c-3.6,4.8-8,8.4-14,9.9c-4.2,1.1-8.3,0.8-12-1.5c-2.8-1.7-5.5-3.7-8.4-5.6c-2.1,2.3-3.9,5.2-5.6,8.2
		c-1,1.7-1.2,3.4-1,5.3c0.1,1,0.1,2.1,0.2,3.1c0,1.7-1.1,2.9-2.6,3c-1.5,0.1-2.8-1-2.9-2.7c-0.2-2.1-0.2-4.2-0.3-6.4
		c-0.3-6.1-1.3-12.1-3.8-17.8c-0.6-1.4-1.4-2.1-2.9-2.5c-8.4-2.1-13.9-7.2-16.1-15.7c-1-3.7-0.6-7.5-0.4-11.2c0.1-1.5,0.1-3,0.6-4.4
		c0.7-2.1,2.9-2.5,4.5-1.1c1.8,1.7,4.1,2.7,6.3,3.8c2.2,1.1,4.4,2.1,6.4,3.4c4.1,2.6,6,6.7,6.4,11.4c0.3,3.5-0.1,6.9-1,10.3
		c-0.1,0.4-0.2,0.9,0,1.2c2.1,4.1,3.5,8.4,4.4,13.1c0.6-0.9,1.2-1.6,1.7-2.3c4.3-5.7,9.7-9.9,15.9-13.3c3.1-1.7,6.3-3.1,9.4-4.6
		c1.7-0.8,3.3-0.3,4,1.2c0.7,1.5,0,3-1.7,3.8c-5.4,2.4-10.7,5-15.5,8.5c-0.6,0.4-1.2,0.9-1.8,1.4c0.5,0.5,0.9,1,1.5,1.3
		c1.4,1,2.8,2,4.3,3c3.4,2.3,7,2.5,10.7,1.1c4.2-1.5,7.5-4.3,9.8-8c2-3.2,3.8-6.7,5.5-10c1.4-2.7,2.7-5.5,4-8.4
		c-1.5-0.2-3-0.4-4.5-0.6c-4.1-0.6-8.1-1.3-12.2-1.8c-4.7-0.6-9.4-0.8-13.9,0.6c-4.9,1.5-7.4,5.2-8.4,10c-0.3,1.3-0.4,2.6-0.7,3.9
		c-0.3,1.3-1.5,2.2-2.8,2.1c-1.4-0.1-2.5-1.2-2.6-2.6c-0.5-6.8,4.2-14.8,10.2-17.7c4.6-2.2,9.5-2.7,14.5-2.2
		c5.9,0.6,11.7,1.5,17.5,2.3c3.2,0.4,6.3,0.9,9.5-0.3c1.5-0.6,2.6,0.2,3.6,2V50.4z M25.2,43.4c-1.6,11.1,4.4,18.7,12.6,19.9
		c0.7-2.5,1-5,0.8-7.6c-0.3-3.7-1.8-6.6-5.2-8.3C30.7,46,28,44.8,25.2,43.4"/>
	<path class="st0" d="M117.4,48.9l-0.3-0.7c-1.1-2.3-2.1-4.5-1.8-6.9c0-0.3,0-0.5,0-0.5c-1.2-9.5-6.1-16.6-14.4-21.2
		c-0.2-0.1-0.5-0.4-0.6-0.6C95,9.4,86.7,4.5,75.6,4.5c-0.5,0-1-0.1-1.4-0.3c-9.4-5.5-19-5.5-28.4,0c-0.4,0.2-0.9,0.4-1.3,0.4h0h-0.2
		c-11,0-19.3,4.9-24.7,14.5c-0.2,0.3-0.4,0.5-0.6,0.7C9.5,24.9,4.6,33.2,4.5,44.3c0,0.5-0.2,1.2-0.5,1.7c-5.2,9-5.4,18.1-0.5,27.2
		l0.1,0.2c0.7,1.3,1.1,2.1,0.8,3.2l0,0.1l0,0.2C5,87.3,9.8,95.1,18.7,100.2c0.4,0.2,0.8,0.6,1,0.9c5.4,9.5,13.6,14.4,24.6,14.4
		c0.5,0,1.1,0.1,1.6,0.4c4.6,2.7,9.3,4.1,14.1,4.1c4.6,0,9.2-1.3,13.9-3.8c0.7-0.4,1.5-0.6,2.1-0.6c10.8-0.1,19-4.9,24.3-14.4
		c0.2-0.3,0.4-0.6,0.7-0.7c9.5-5.4,14.4-13.6,14.5-24.5c0-0.6,0.2-1.4,0.5-1.9C120.8,65.8,121.3,57.3,117.4,48.9 M21.9,25
		c1.4-0.7,2.3-1.5,2.9-2.8c3.9-7.5,10-11.3,18.7-11.7c2.4,0.6,4.3-0.5,5.8-1.4c7.4-4.3,14.9-4.1,22.2,0.6c1.1,0.7,2.3,1,3.6,1
		c9.2-0.4,16,3.6,20.3,12c0.4,0.8,1.2,1.6,2,2c6.7,3.3,10.7,8.7,11.8,16.1c0.1,0.8,0.1,1.7,0.1,2.6c0,0.7,0,1.4,0,2.1
		c0.1,0.8,0.3,1.8,0.8,2.7c5,7.5,5,16.2,0.1,23.7c-0.6,0.9-0.9,2.1-0.8,3.2c0.3,6-1.4,11.1-5.4,15.5c-1.8,2-3.9,3.6-6.2,4.6
		c-1.2,0.6-2.1,1.4-2.6,2.6c-3.7,7.7-11.4,12.1-20.1,11.7c-1.2-0.1-2.4,0.3-3.3,0.9c-7.3,4.9-16.1,4.9-23.5,0c-0.9-0.6-2.1-1-3.3-1
		c-0.4,0-0.7,0-1,0c-8.9,0-15.3-4-19.4-12.1c-0.4-0.8-1.3-1.6-2.2-2.1c-6-3-9.8-7.8-11.3-14.1c-0.4-1.8-0.4-3.8-0.4-5.9
		c0-1.1-0.1-2.4-1-3.8c-4.8-7-4.8-16.1,0-23.1c0.8-1.2,1.1-2.4,1-3.7C9.9,36.4,14.4,28.5,21.9,25"/>
</g>
</svg>
