<?xml version="1.0" encoding="utf-8"?>
<!-- Generator: Adobe Illustrator 21.0.0, SVG Export Plug-In . SVG Version: 6.00 Build 0)  -->
<svg version="1.1" id="圖層_1" xmlns="http://www.w3.org/2000/svg" xmlns:xlink="http://www.w3.org/1999/xlink" x="0px" y="0px"
	 viewBox="0 0 120 120" style="enable-background:new 0 0 120 120;" xml:space="preserve">
<style type="text/css">
	.st0{fill:#231815;}
</style>
<g>
	<g>
		<g>
			<path d="M92.8,64.4c0,7.9,0,15.9,0,23.8c0,1.5-0.3,1.8-1.8,1.8c-12.2,0-24.3,0-36.5,0c-1.6,0-1.9-0.3-1.9-1.8
				c0-15.9,0-31.8,0-47.7c0-1.5,0.3-1.7,1.7-1.7c2.2,0,4.3,0,6.5,0c1.1,0,1.5,0.4,1.5,1.6c0,3.2,0,6.4,0,9.5c0,2.5,1.3,3.9,3.8,3.9
				c4.3,0,8.7,0,13,0c2.4,0,3.8-1.4,3.8-3.8c0-3.1,0-6.3,0-9.4c0-1.4,0.4-1.7,1.7-1.7c2.2,0,4.3,0,6.5,0c1.3,0,1.6,0.3,1.6,1.7
				C92.8,48.4,92.8,56.4,92.8,64.4z M60,41c-1.4,0-2.7,0.1-3.9,0c-1-0.1-1.2,0.3-1.2,1.2c0,14.8,0,29.5,0,44.3c0,0.3,0,0.7,0,1.1
				c11.9,0,23.6,0,35.4,0c0-15.5,0-31,0-46.5c-1.7,0-3.3,0-5,0c0,2.9,0,5.8,0,8.6c0,3.9-2.3,6.3-6.2,6.3c-4.3,0-8.6,0-12.9,0
				c-0.6,0-1.3,0-1.9-0.2c-2.6-0.7-4.3-2.9-4.3-5.6C60,47.2,60,44.2,60,41z"/>
			<path d="M91,91.3H54.4c-2.3,0-3.2-0.8-3.2-3.1l0-47.7c0-2.2,0.8-3,3-3l1,0c1.8,0,3.7,0,5.5,0c1.8,0,2.8,1,2.8,2.8
				c0,1.7,0,3.4,0,5c0,1.5,0,3,0,4.5c0,1.8,0.8,2.6,2.6,2.6c4.3,0,8.7,0,13,0c1.7,0,2.5-0.8,2.5-2.5c0-1.7,0-3.4,0-5.2l0-4.3
				c0-2.1,0.9-3,3-3c2.2,0,4.3,0,6.5,0c2,0,2.9,0.9,2.9,2.9l0,30l0,17.9C94,90.4,93.2,91.3,91,91.3z M56.2,86.3h32.9V42.4h-2.4
				l0,7.3c0,4.7-2.9,7.6-7.5,7.6c-4.3,0-8.6,0-12.9,0c-0.6,0-1.4,0-2.2-0.2c-3.1-0.8-5.2-3.6-5.2-6.8c0-2.1,0-4.2,0-6.3l0-1.6
				c-0.9,0-1.7,0-2.6,0c0,11.3,0,22.6,0,33.9L56.2,86.3z M53.9,40.1c0,0.1,0,0.2,0,0.4v0.3c0.1-0.2,0.2-0.3,0.4-0.5
				c0.1-0.1,0.2-0.2,0.3-0.2l-0.2,0C54.1,40,54,40,53.9,40.1z"/>
		</g>
		<g>
			<path d="M35.5,65.6c0.2,0.4,0.2,0.6,0.4,0.8c2,3.1,1.8,6.2,0.3,9.4c-1.1,2.3-1.6,4.6-1.3,7.1c0.2,1.6,0.6,3,1.8,4.1
				c0.4,0.4,1.1,0.7,1.6,0.7c2.8,0.1,5.7,0,8.5,0c0.3,0,0.8-0.1,1,0.1c0.4,0.3,1,0.8,0.9,1.1c-0.1,0.4-0.7,0.8-1.1,1.1
				c-0.2,0.1-0.5,0-0.7,0c-3,0-6,0-9,0c-0.7,0-1.5-0.3-2.1-0.7c-2.3-1.7-3.1-4.1-3.4-6.9c-0.2-2.6,0.4-5.1,1.5-7.5
				c0.5-1.1,0.8-2.3,1-3.4c0.2-1.3-0.1-2.6-0.9-3.7c-1.2-1.9-1.7-3.9-1.6-6.1c0.1-1.9,0.1-3.9,0-5.8c-0.1-3,0.8-5.6,2.5-8.1
				c1.7-2.5,3.5-4.8,5-7.4c0.8-1.3,1.2-2.9,1.8-4.3c0.1-0.3,0.1-0.6,0.2-1c-2-0.4-2-0.5-2-2.5c0-1.4,0-2.9,0-4.3
				c0-2.2,1.3-3.5,3.5-3.5c2.6,0,5.2,0,7.8,0c2.1,0,3.4,1.3,3.4,3.4c0,1.7,0,3.5,0,5.2c0,1.2-0.3,1.5-1.5,1.5c-2.5,0-5.1,0-7.6,0
				c-0.8,0-1.1,0.2-1.3,1c-0.8,3.9-2.8,7.1-5.2,10.1c-0.9,1.1-1.7,2.3-2.7,3.7c0.6,0,1,0.1,1.3,0.1c3.1,0,6.3,0,9.4,0
				c0.9,0,1.5,0.2,1.7,1.1c0.1,0.7-0.6,1.2-1.7,1.2c-3.6,0-7.3,0-10.9,0c-0.8,0-1.1,0.2-1.2,1c0,0,0,0.1,0,0.1c0,3.3,0,6.5,0,9.9
				c0.3,0,0.6,0,0.9,0c3.7,0,7.5,0,11.2,0c1.1,0,1.8,0.5,1.7,1.2c-0.1,1-0.8,1.1-1.7,1.1c-3.4,0-6.8,0-10.3,0
				C36.5,65.6,36.1,65.6,35.5,65.6z M42.3,32.6c3.3,0,6.4,0,9.6,0c0.2,0,0.5-0.4,0.5-0.6c0-1.3,0-2.5,0-3.8c0-0.7-0.4-1.1-1.1-1.1
				c-2.6,0-5.3,0-7.9,0c-0.7,0-1,0.3-1,1C42.2,29.6,42.3,31,42.3,32.6z"/>
			<path d="M47.4,91.3c-0.1,0-0.3,0-0.4,0l-2.5,0c-2.2,0-4.4,0-6.6,0c-1,0-2-0.4-2.8-0.9c-2.3-1.7-3.6-4.3-3.9-7.8
				c-0.2-2.7,0.3-5.3,1.6-8.1c0.5-1.1,0.7-2.3,0.9-3.1c0.2-0.9-0.1-1.8-0.7-2.8c-1.4-2.1-2-4.3-1.8-6.9c0.1-1.7,0.1-3.5,0-5.7
				c-0.1-3.1,0.8-6,2.7-8.9c0.5-0.8,1.1-1.6,1.7-2.4c1.1-1.6,2.3-3.2,3.3-4.9c0.5-0.8,0.9-1.8,1.2-2.8c0.1-0.3,0.2-0.6,0.3-0.9
				c-1.5-0.5-1.8-1.3-1.8-3.4l0-1.2c0-1,0-2.1,0-3.1c0-2.9,1.9-4.8,4.8-4.8c2.6,0,5.2,0,7.8,0c2.8,0,4.7,1.8,4.7,4.7
				c0,1.8,0,3.5,0,5.3c0,1.9-0.9,2.8-2.8,2.8c-2.5,0-5.1,0-7.6,0c0,0,0,0,0,0c-0.8,4.2-3.1,7.6-5.4,10.6c-0.4,0.6-0.8,1.1-1.2,1.7
				l0.6,0c2.6,0,5.1,0,7.7,0c2.4,0,2.8,1.6,2.9,2.2c0.1,0.6-0.1,1.3-0.5,1.7c-0.5,0.6-1.4,1-2.4,1l-1.6,0c-3.1,0-6.1,0-9.2,0l0,8.4
				l10.8,0c1,0,1.9,0.3,2.4,0.9c0.4,0.5,0.6,1.1,0.5,1.7c-0.1,0.9-0.6,2.3-2.9,2.3c0,0,0,0,0,0c-2.3,0-4.6,0-6.8,0h-2.6
				c1.4,2.9,1.3,6.1-0.3,9.5c-1,2.1-1.4,4.2-1.2,6.3c0.2,1.5,0.6,2.6,1.4,3.4c0.2,0.2,0.5,0.3,0.7,0.3c2,0,4,0,6,0l2.7,0
				c0.4,0,1-0.1,1.6,0.3c1.1,0.8,1.6,1.6,1.5,2.4c-0.1,0.9-0.9,1.4-1.4,1.8L48.4,91C48.1,91.3,47.7,91.3,47.4,91.3z M46.8,88.9
				C46.8,88.9,46.8,89,46.8,88.9L46.8,88.9L46.8,88.9z M34.6,51c-0.1,0.2-0.1,0.3-0.2,0.5c0.2-0.2,0.5-0.4,0.9-0.5L34.6,51z
				 M47.5,51.2C47.5,51.2,47.5,51.2,47.5,51.2C47.5,51.2,47.5,51.2,47.5,51.2C47.5,51.2,47.5,51.2,47.5,51.2z M42.4,33.9l1,0.2
				l-0.1,0.5c0.2-0.3,0.5-0.5,0.8-0.7c-0.1,0-0.1,0-0.2,0L42.4,33.9z M53.3,32.9c-0.2,0.3-0.4,0.6-0.7,0.8c0.3,0,0.6,0,0.7,0
				c0-0.1,0-0.1,0-0.2C53.3,33.2,53.3,33.1,53.3,32.9z M43.5,31.3H44c2.4,0,4.7,0,7.1,0c0-0.9,0-1.9,0-2.9c-2.5,0-5,0-7.5,0
				c0,0.9,0,1.8,0,2.7V31.3z"/>
		</g>
		<g>
			<path d="M72.7,65.3c3,0,5.9,0,8.9,0c1.4,0,1.7,0.4,1.7,1.7c0,3.3,0,6.6,0,9.8c0,1.3-0.4,1.7-1.6,1.7c-6,0-12,0-18,0
				c-1.2,0-1.6-0.4-1.6-1.6c0-3.3,0-6.6,0-9.9c0-1.3,0.4-1.7,1.6-1.7C66.7,65.3,69.7,65.3,72.7,65.3C72.7,65.3,72.7,65.3,72.7,65.3z
				 M80.9,76.1c0-2.9,0-5.6,0-8.4c-5.5,0-11,0-16.5,0c0,2.8,0,5.6,0,8.4C69.9,76.1,75.4,76.1,80.9,76.1z"/>
			<path d="M72,79.8c-2.8,0-5.6,0-8.4,0c-1.9,0-2.9-1-2.9-2.9c0-3.3,0-6.6,0-9.9c0-2,1-2.9,2.9-2.9c2.1,0,4.2,0,6.4,0l1.5,0l3.7,0
				c2.1,0,4.2,0,6.4,0c2.1,0,3,1,3,3c0,3.3,0,6.6,0,9.8c0,2-1,2.9-2.9,2.9C78.4,79.8,75.2,79.8,72,79.8z M65.7,74.8h13.9V69H65.7
				V74.8z"/>
		</g>
	</g>
	<g>
		<g>
			<path class="st0" d="M117.5,48.9l-0.3-0.7c-1.1-2.3-2.1-4.5-1.8-6.9c0-0.3,0-0.5,0-0.6c-1.2-9.5-6.1-16.6-14.4-21.2
				c-0.2-0.1-0.5-0.4-0.6-0.6C95,9.4,86.7,4.5,75.6,4.5c-0.5,0-1-0.1-1.4-0.3c-9.4-5.5-19-5.5-28.4,0c-0.4,0.2-0.9,0.4-1.3,0.4h0
				h-0.2c-11,0-19.3,4.9-24.7,14.5c-0.2,0.3-0.4,0.5-0.6,0.7C9.4,24.9,4.5,33.2,4.4,44.3c0,0.5-0.2,1.2-0.5,1.7
				c-5.2,9-5.4,18.1-0.5,27.2l0.1,0.2c0.7,1.3,1.1,2.1,0.8,3.2l0,0.1l0,0.2c0.5,10.4,5.3,18.3,14.3,23.4c0.4,0.2,0.8,0.6,1,0.9
				c5.4,9.5,13.7,14.4,24.7,14.4c0.5,0,1.1,0.1,1.6,0.4c4.6,2.7,9.4,4.1,14.1,4.1c4.6,0,9.3-1.3,13.9-3.8c0.7-0.4,1.5-0.6,2.1-0.6
				c10.8-0.1,19-4.9,24.4-14.4c0.2-0.3,0.4-0.6,0.7-0.7c9.6-5.4,14.4-13.6,14.5-24.5c0-0.6,0.2-1.4,0.5-1.9
				C120.9,65.8,121.3,57.3,117.5,48.9 M21.9,24.9c1.4-0.7,2.3-1.5,2.9-2.8c3.9-7.5,10-11.3,18.7-11.7c2.4,0.6,4.3-0.5,5.8-1.4
				c7.4-4.3,14.9-4.1,22.2,0.6c1.1,0.7,2.3,1,3.6,1c9.2-0.4,16,3.6,20.3,12c0.4,0.8,1.2,1.6,2,2c6.7,3.3,10.7,8.7,11.9,16.1
				c0.1,0.8,0.1,1.7,0.1,2.6c0,0.7,0,1.4,0,2.1c0.1,0.8,0.3,1.8,0.8,2.7c5,7.5,5,16.2,0.1,23.7c-0.6,0.9-0.9,2.1-0.8,3.2
				c0.3,6-1.4,11.1-5.4,15.5c-1.8,2-3.9,3.6-6.3,4.6c-1.2,0.6-2.1,1.4-2.7,2.6c-3.7,7.7-11.4,12.1-20.1,11.7
				c-1.2-0.1-2.4,0.3-3.3,0.9c-7.3,4.9-16.1,4.9-23.5,0c-0.9-0.6-2.1-1-3.3-1c-0.4,0-0.7,0-1,0c-8.9,0-15.3-4-19.5-12.1
				c-0.4-0.8-1.3-1.6-2.2-2.1c-6-3-9.8-7.8-11.3-14.1c-0.4-1.8-0.4-3.8-0.4-5.9c0-1.1-0.1-2.4-1-3.8c-4.8-7-4.8-16.1,0-23.1
				c0.8-1.2,1.1-2.4,1-3.7C9.8,36.4,14.4,28.5,21.9,24.9"/>
		</g>
	</g>
	<g>
		<rect x="5.1" y="62.1" transform="matrix(0.8679 -0.4967 0.4967 0.8679 -24.3049 39.3149)" width="113.4" height="6.5"/>
	</g>
</g>
</svg>
