<?xml version="1.0" encoding="utf-8"?>
<!-- Generator: Adobe Illustrator 21.0.0, SVG Export Plug-In . SVG Version: 6.00 Build 0)  -->
<svg version="1.1" id="圖層_1" xmlns="http://www.w3.org/2000/svg" xmlns:xlink="http://www.w3.org/1999/xlink" x="0px" y="0px"
	 viewBox="0 0 120 120" style="enable-background:new 0 0 120 120;" xml:space="preserve">
<style type="text/css">
	.st0{fill:none;stroke:#c1b4a1;stroke-width:3;stroke-miterlimit:10;}
	.st1{fill:#c1b4a1;}
	.st2{fill:none;stroke:#c1b4a1;stroke-width:4;stroke-miterlimit:10;}
</style>
<g>
	<polyline class="st0" points="33.7,71 62,96.1 86.8,74.2 	"/>
	<path class="st1" d="M90.4,71c-1.1,2.1-2.3,5.1-2.6,7.4l-1.5-3.8l-3.6-1.9C85.1,72.6,88.1,71.8,90.4,71"/>
	<polyline class="st0" points="52,71 80.4,96.1 105.1,74.2 	"/>
	<path class="st1" d="M108.7,71c-1.1,2.1-2.3,5.1-2.6,7.4l-1.5-3.8l-3.6-1.9C103.4,72.6,106.4,71.8,108.7,71"/>
	<line class="st2" x1="18.6" y1="97.1" x2="102.8" y2="97.1"/>
	<path class="st1" d="M38.3,51.9l10,6.6l-7.7-9.1c-0.3,0.5-0.6,1-1,1.4C39.2,51.2,38.7,51.6,38.3,51.9"/>
	<path class="st1" d="M32,9.4l-4,11.2c1.1,0.1,2.2,0.4,3.3,0.7L32,9.4z"/>
	<path class="st1" d="M55.2,44.7l-11.2-4c-0.1,1.1-0.4,2.3-0.7,3.4L55.2,44.7z"/>
	<path class="st1" d="M12.8,51L6.2,61l9.1-7.7c-0.5-0.3-1-0.6-1.4-1C13.5,51.9,13.2,51.5,12.8,51"/>
	<path class="st1" d="M54.3,29.3l-11.7,2.1c0.5,1,0.8,2.1,1.1,3.2L54.3,29.3z"/>
	<path class="st1" d="M20,68l4-11.2c-1.1-0.1-2.2-0.4-3.3-0.7L20,68z"/>
	<path class="st1" d="M35.4,67.1l-2.1-11.7c-1,0.5-2.1,0.8-3.2,1.1L35.4,67.1z"/>
	<path class="st1" d="M39.2,26.4l6.6-10l-9.1,7.7c0.5,0.3,1,0.6,1.4,1C38.5,25.5,38.8,25.9,39.2,26.4"/>
	<path class="st1" d="M40.6,43.8c-0.4,1.2-1,2.3-1.8,3.4c-0.4,0.6-0.8,1.2-1.2,1.7c-0.5,0.5-1,1-1.6,1.4c-1,0.8-2.1,1.6-3.2,2.2
		c-1.3,0.6-2.6,1-4,1.3c-1.3,0.2-2.5,0.3-3.8,0.2c-1.4-0.1-2.8-0.3-4.1-0.8c-1.2-0.4-2.3-1-3.4-1.8c-0.6-0.4-1.2-0.8-1.7-1.3
		c-0.5-0.5-1-1-1.4-1.6c-0.8-1-1.6-2.1-2.2-3.2c-0.6-1.3-1-2.6-1.3-4c-0.2-1.3-0.3-2.5-0.2-3.8c0.1-1.4,0.3-2.8,0.8-4.1
		c0.4-1.2,1-2.3,1.8-3.4c0.4-0.6,0.8-1.2,1.2-1.7c0.5-0.5,1-1,1.6-1.4c1-0.8,2.1-1.6,3.2-2.2c1.3-0.6,2.6-1,4-1.3
		c1.3-0.2,2.5-0.3,3.8-0.2c1.4,0.1,2.8,0.3,4.1,0.8c1.2,0.4,2.3,1,3.4,1.8c0.6,0.4,1.2,0.8,1.7,1.3c0.5,0.5,1,1,1.4,1.6
		c0.8,1,1.6,2,2.2,3.2c0.6,1.3,1,2.6,1.3,4c0.2,1.3,0.3,2.5,0.2,3.8C41.3,41.1,41,42.5,40.6,43.8"/>
	<path class="st1" d="M117.4,48.9l-0.3-0.7c-1.1-2.3-2.1-4.5-1.8-6.9c0-0.3,0-0.5,0-0.5c-1.2-9.5-6.1-16.6-14.4-21.2
		c-0.2-0.1-0.5-0.4-0.6-0.6C95,9.4,86.7,4.5,75.6,4.5c-0.5,0-1-0.1-1.4-0.3c-9.4-5.5-19-5.5-28.4,0c-0.4,0.2-0.9,0.4-1.3,0.4h0h-0.2
		c-11,0-19.3,4.9-24.7,14.5c-0.2,0.3-0.4,0.5-0.6,0.6C9.5,24.9,4.6,33.2,4.5,44.3c0,0.5-0.2,1.2-0.5,1.7c-5.2,9-5.4,18.1-0.5,27.2
		l0.1,0.2c0.7,1.3,1.1,2.1,0.8,3.2l0,0.2l0,0.2C5,87.3,9.8,95.1,18.7,100.2c0.4,0.2,0.8,0.6,1,0.9c5.4,9.5,13.6,14.4,24.6,14.4
		c0.5,0,1.1,0.2,1.6,0.4c4.6,2.7,9.3,4.1,14.1,4.1c4.6,0,9.2-1.3,13.9-3.8c0.7-0.4,1.5-0.6,2.1-0.6c10.8-0.1,19-4.9,24.3-14.4
		c0.2-0.3,0.4-0.6,0.7-0.7c9.5-5.3,14.4-13.6,14.5-24.5c0-0.6,0.2-1.4,0.5-1.9C120.8,65.8,121.3,57.3,117.4,48.9 M21.9,25
		c1.4-0.7,2.3-1.5,2.9-2.8c3.9-7.5,10-11.3,18.7-11.7c2.4,0.6,4.3-0.5,5.8-1.4c7.4-4.3,14.9-4.1,22.2,0.6c1.1,0.7,2.3,1,3.6,1
		c9.2-0.4,16,3.6,20.3,12c0.4,0.8,1.2,1.6,2,2c6.7,3.3,10.7,8.7,11.8,16.1c0.1,0.8,0.1,1.7,0.1,2.6c0,0.7,0,1.4,0,2.1
		c0.1,0.8,0.3,1.8,0.8,2.7c5,7.5,5,16.2,0.1,23.7c-0.6,0.9-0.9,2.1-0.8,3.2c0.3,6-1.4,11.1-5.4,15.5c-1.8,2-3.9,3.6-6.2,4.6
		c-1.2,0.6-2.1,1.4-2.6,2.6c-3.7,7.7-11.4,12.1-20.1,11.7c-1.2-0.1-2.4,0.3-3.3,0.9c-7.3,4.9-16.1,4.9-23.5,0c-0.9-0.6-2.1-1-3.3-1
		c-0.4,0-0.7,0-1,0c-8.9,0-15.3-4-19.4-12.1c-0.4-0.8-1.3-1.6-2.2-2.1c-6-3-9.8-7.8-11.3-14.2c-0.4-1.8-0.4-3.8-0.4-5.9
		c0-1.1-0.1-2.4-1-3.8c-4.8-7-4.8-16.1,0-23.1c0.8-1.2,1.1-2.4,1-3.7C9.9,36.4,14.4,28.5,21.9,25"/>
</g>
</svg>
