<?xml version="1.0" encoding="utf-8"?>
<!-- Generator: Adobe Illustrator 21.0.0, SVG Export Plug-In . SVG Version: 6.00 Build 0)  -->
<svg version="1.1" id="圖層_1" xmlns="http://www.w3.org/2000/svg" xmlns:xlink="http://www.w3.org/1999/xlink" x="0px" y="0px"
	 viewBox="0 0 120 120" style="enable-background:new 0 0 120 120;" xml:space="preserve">
<style type="text/css">
	.st0{fill:#c1b4a1;}
</style>
<g>
	<g>
		<path class="st0" d="M74,61.6c1.3-0.9,2.6-1.8,4-2.6c0.1,0,0.1-0.1,0.2-0.1c2.3,0.5,4.6,0.9,6.9,1.4c-1.4,1.9-2.8,3.8-4.2,5.8
			c0,0-0.1,0-0.1,0c-1.6,0.2-3.1,0.5-4.7,0.7c-1,0.2-0.9,1.8,0.1,1.6c1.1-0.2,2.2-0.3,3.3-0.5c-0.6,0.8-1.2,1.6-1.8,2.4
			c-0.6,0.8,0.6,1.8,1.2,1c0.6-0.9,1.2-1.7,1.9-2.6c0.2,1.1,0.3,2.2,0.5,3.2c0.2,1,1.8,0.9,1.6-0.1c-0.2-1.5-0.5-3.1-0.7-4.6
			c0-0.1,0-0.2-0.1-0.2c1.3-1.8,2.7-3.7,4-5.5c0.8,2.1,1.6,4.1,2.3,6.2c0,0-0.1,0.1-0.1,0.1c-0.7,1.4-1.3,2.9-2,4.3
			c-0.4,0.9,1,1.6,1.5,0.7c0.4-1,0.9-2,1.4-3l1.1,2.9c0.4,1,1.9,0.4,1.5-0.6c-0.4-1-0.7-1.9-1.1-2.9c1,0.5,2,0.9,3,1.4
			c0.9,0.4,1.6-1,0.7-1.5c-1.4-0.6-2.9-1.3-4.3-1.9c-0.1,0-0.1,0-0.2-0.1c-0.8-2.1-1.6-4.2-2.4-6.3c2.2,0.4,4.5,0.9,6.7,1.4
			c0,0.1,0,0.1,0.1,0.2c0.9,1.3,1.7,2.6,2.6,4c0.6,0.9,1.9-0.1,1.3-0.9c-0.6-0.9-1.2-1.8-1.8-2.7c1,0.2,2,0.4,3,0.6
			c1,0.2,1.3-1.4,0.3-1.6c-1-0.2-2-0.4-3-0.6c0.9-0.6,1.9-1.2,2.8-1.8c0.9-0.6-0.1-1.9-0.9-1.3c-1.3,0.9-2.6,1.7-3.9,2.6
			c-0.1,0-0.1,0.1-0.1,0.1c-2.2-0.5-4.5-0.9-6.8-1.4c1.4-1.9,2.7-3.8,4.1-5.6c0,0,0,0,0.1,0c1.5-0.2,3.1-0.5,4.6-0.7
			c1-0.2,0.9-1.8-0.1-1.6c-1.1,0.2-2.1,0.3-3.2,0.5c0.5-0.7,1.1-1.5,1.6-2.2c0.6-0.8-0.6-1.8-1.2-1c-0.6,0.8-1.1,1.6-1.7,2.4
			c-0.2-1.1-0.3-2.2-0.5-3.3c-0.2-1-1.8-0.9-1.6,0.1c0.2,1.6,0.5,3.1,0.7,4.7c0,0.1,0,0.2,0.1,0.3c-1.3,1.8-2.7,3.7-4,5.5
			c-0.8-2.2-1.7-4.4-2.5-6.6c0,0,0-0.1,0.1-0.1c0.6-1.4,1.3-2.8,1.9-4.3c0.4-1-1-1.6-1.5-0.7c-0.4,1-0.9,2-1.3,2.9
			c-0.3-0.9-0.7-1.7-1-2.6c-0.4-1-1.9-0.4-1.5,0.6c0.3,0.9,0.7,1.8,1,2.7c-1-0.5-2.1-0.9-3.1-1.4c-0.9-0.4-1.6,1-0.7,1.5
			c1.4,0.7,2.9,1.3,4.3,2c0.1,0,0.2,0,0.2,0.1c0.8,2.1,1.6,4.3,2.4,6.4c-2.2-0.4-4.5-0.9-6.7-1.4c0,0,0-0.1-0.1-0.1
			c-0.9-1.3-1.7-2.6-2.6-3.9c-0.6-0.9-1.9,0.1-1.3,0.9c0.6,0.9,1.2,1.8,1.7,2.6c-0.9-0.2-1.8-0.4-2.7-0.6c-1-0.2-1.3,1.4-0.3,1.6
			c0.9,0.2,1.9,0.4,2.8,0.6c-1,0.6-1.9,1.3-2.9,1.9C72.2,60.9,73.2,62.2,74,61.6"/>
		<path class="st0" d="M43.1,71.8l6.5,4.3l-5-6c-0.2,0.3-0.4,0.6-0.7,0.9C43.7,71.3,43.4,71.5,43.1,71.8"/>
		<path class="st0" d="M38.9,43.9l-2.6,7.3c0.7,0.1,1.5,0.2,2.2,0.4L38.9,43.9z"/>
		<path class="st0" d="M28.9,44.5l1.4,7.7c0.7-0.3,1.4-0.5,2.1-0.7L28.9,44.5z"/>
		<path class="st0" d="M54.2,67l-7.4-2.6c-0.1,0.7-0.2,1.5-0.4,2.2L54.2,67z"/>
		<path class="st0" d="M26.3,71.2L22,77.7l6-5.1c-0.3-0.2-0.6-0.4-0.9-0.7C26.8,71.8,26.6,71.5,26.3,71.2"/>
		<path class="st0" d="M15.9,59.2l7.3,2.6c0.1-0.7,0.2-1.5,0.4-2.2L15.9,59.2z"/>
		<path class="st0" d="M53.6,56.9l-7.7,1.4c0.3,0.7,0.5,1.4,0.7,2.1L53.6,56.9z"/>
		<path class="st0" d="M31.1,82.3l2.6-7.3c-0.7-0.1-1.5-0.2-2.2-0.4L31.1,82.3z"/>
		<path class="st0" d="M26.9,54.4l-6.5-4.3l5,6c0.2-0.3,0.4-0.6,0.7-0.9C26.4,54.9,26.7,54.7,26.9,54.4"/>
		<path class="st0" d="M41.2,81.7L39.8,74c-0.7,0.3-1.4,0.5-2.1,0.7L41.2,81.7z"/>
		<path class="st0" d="M16.5,69.3l7.7-1.4c-0.3-0.7-0.6-1.4-0.7-2.1L16.5,69.3z"/>
		<path class="st0" d="M43.7,55l4.3-6.5l-6,5.1c0.3,0.2,0.6,0.4,0.9,0.7C43.2,54.4,43.4,54.7,43.7,55"/>
		<path class="st0" d="M44.6,66.5c-0.3,0.8-0.7,1.5-1.2,2.3c-0.3,0.4-0.5,0.8-0.8,1.1c-0.3,0.4-0.7,0.6-1,0.9
			c-0.7,0.6-1.3,1-2.1,1.4c-0.8,0.4-1.7,0.7-2.6,0.8c-0.8,0.1-1.7,0.2-2.5,0.1c-0.9-0.1-1.8-0.2-2.7-0.5c-0.8-0.3-1.5-0.7-2.2-1.2
			c-0.4-0.3-0.8-0.5-1.1-0.8c-0.4-0.3-0.6-0.7-0.9-1c-0.6-0.7-1-1.3-1.4-2.1c-0.4-0.8-0.7-1.7-0.8-2.6c-0.2-0.8-0.2-1.7-0.1-2.5
			c0.1-0.9,0.2-1.8,0.5-2.7c0.3-0.8,0.7-1.5,1.2-2.3c0.3-0.4,0.5-0.8,0.8-1.1c0.3-0.4,0.7-0.6,1-0.9c0.7-0.6,1.3-1,2.1-1.4
			c0.8-0.4,1.7-0.7,2.6-0.8C34,53,34.8,53,35.7,53c0.9,0.1,1.8,0.2,2.7,0.5c0.8,0.3,1.5,0.7,2.2,1.2c0.4,0.3,0.8,0.5,1.1,0.8
			c0.4,0.3,0.6,0.7,0.9,1c0.6,0.7,1.1,1.3,1.4,2.1c0.4,0.8,0.7,1.7,0.8,2.6c0.1,0.8,0.2,1.7,0.1,2.5C45,64.7,44.9,65.6,44.6,66.5"/>
		<path class="st0" d="M63.5,25.3c-8.2-2.4-15.8-1.3-21.6,3c-2.8,2.1-4.9,5-6.4,8.4l-3.3-2.4c1.3,2.6,2,6.6,2.3,9.6
			c1.8-2.5,4.5-5.4,7-7l-3.9,0.3c1.3-2.9,3.2-5.4,5.6-7.2c5.2-4,12.2-4.9,19.8-2.7c7.7,2.3,14.9,7.5,20.4,14.8l1.6-1.2
			C79.2,33.2,71.5,27.7,63.5,25.3"/>
		<path class="st0" d="M64.5,94.7c8.2,2.4,15.8,1.3,21.6-3c2.8-2.1,4.9-5,6.4-8.4l3.3,2.4c-1.3-2.7-2-6.6-2.3-9.6
			c-1.8,2.5-4.5,5.4-6.9,7l3.9-0.3c-1.4,2.9-3.2,5.4-5.6,7.2C79.6,94,72.6,95,65,92.7c-7.7-2.3-14.9-7.5-20.4-14.8L43,79.2
			C48.8,86.8,56.4,92.3,64.5,94.7"/>
		<path class="st0" d="M117.4,48.9l-0.3-0.7c-1.1-2.3-2.1-4.5-1.8-6.9c0-0.3,0-0.5,0-0.5c-1.2-9.5-6.1-16.6-14.4-21.2
			c-0.2-0.1-0.5-0.4-0.6-0.6C95,9.4,86.7,4.5,75.6,4.5c-0.5,0-1-0.1-1.4-0.3c-9.4-5.5-19-5.5-28.4,0c-0.4,0.2-0.9,0.4-1.3,0.4h0
			h-0.2c-11,0-19.3,4.9-24.7,14.5c-0.2,0.3-0.4,0.5-0.6,0.6C9.5,24.9,4.6,33.2,4.5,44.3c0,0.5-0.2,1.2-0.5,1.7
			c-5.2,9-5.4,18.1-0.5,27.2l0.1,0.2c0.7,1.3,1.1,2.1,0.8,3.2l0,0.1l0,0.2C5,87.3,9.8,95.1,18.7,100.2c0.4,0.2,0.8,0.6,1,0.9
			c5.4,9.5,13.6,14.4,24.6,14.4c0.5,0,1.1,0.2,1.5,0.4c4.7,2.7,9.4,4.1,14.1,4.1c4.6,0,9.3-1.3,13.9-3.8c0.7-0.4,1.5-0.6,2.1-0.6
			c10.8-0.1,19-4.9,24.3-14.5c0.2-0.3,0.4-0.6,0.7-0.7c9.5-5.4,14.4-13.6,14.5-24.5c0-0.6,0.2-1.4,0.5-1.9
			C120.8,65.8,121.3,57.3,117.4,48.9 M21.9,25c1.4-0.7,2.3-1.5,2.9-2.8c3.9-7.5,10-11.3,18.7-11.7c2.4,0.6,4.3-0.5,5.8-1.4
			c7.4-4.3,14.9-4.1,22.2,0.6c1.1,0.7,2.3,1,3.5,1c9.2-0.4,16,3.6,20.3,12c0.4,0.8,1.2,1.6,2,2c6.7,3.3,10.7,8.7,11.8,16.1
			c0.1,0.8,0.1,1.7,0.1,2.6c0,0.7,0,1.4,0,2.1c0.1,0.8,0.3,1.8,0.8,2.7c5,7.6,5,16.2,0.1,23.7c-0.6,0.9-0.9,2.1-0.8,3.2
			c0.3,6-1.4,11.1-5.4,15.5c-1.8,2-3.9,3.6-6.2,4.6c-1.2,0.6-2.1,1.4-2.6,2.6c-3.7,7.7-11.4,12.1-20.1,11.7
			c-1.2-0.1-2.4,0.3-3.3,0.9c-7.3,4.9-16.1,4.9-23.5,0c-0.9-0.6-2.2-1-3.3-1c-0.3,0-0.7,0-1,0c-8.9,0-15.3-4-19.4-12.1
			c-0.4-0.8-1.3-1.6-2.2-2.1c-6-3-9.8-7.8-11.3-14.2c-0.4-1.8-0.4-3.8-0.4-5.9c0-1.1-0.1-2.4-1-3.8c-4.8-7-4.8-16.1,0-23.1
			c0.8-1.2,1.1-2.4,1-3.7C9.9,36.4,14.4,28.5,21.9,25"/>
	</g>
</g>
</svg>
