<?xml version="1.0" encoding="utf-8"?>
<!-- Generator: Adobe Illustrator 21.0.0, SVG Export Plug-In . SVG Version: 6.00 Build 0)  -->
<svg version="1.1" id="圖層_1" xmlns="http://www.w3.org/2000/svg" xmlns:xlink="http://www.w3.org/1999/xlink" x="0px" y="0px"
	 viewBox="0 0 120 120" style="enable-background:new 0 0 120 120;" xml:space="preserve">
<g>
	<g>
		<path d="M82,25.2c0.3-0.8,0.8-2,1.5-2.6s1.7-0.7,2.5-0.3c0.6,0.4,0.9,1.2,0.9,1.9c0,0.7-0.2,1.4-0.5,2.1c-1.4,3.6-3.4,7-5.9,9.9
			c0.7,2.8,0.6,5.9,0,8.7c-0.6,2.8-2.1,5.6-4.4,7.3c-4.3,3.3-8.2,6.5-13.4,8.1c-2.7,0.8-5.5,1.4-8.3,1.8c-1.4,0.2-2.8,0.4-4.2,0.6
			c-0.7,0.1-1.4,0.2-2,0.2c-0.4,0-1.3,0.3-1.6,0c-0.2-0.2-0.2-0.5,0-0.7c0.1-0.2,0.4-0.4,0.6-0.5c0.7-0.5,1.7-1.6,1.6-2.6
			c-0.2-1.2-1.6-0.4-2.2,0.1c-4.1,3.1-10,3.7-14.7,1.5c-0.9-0.4-1.8-1-2.6-1.7c-1.9-1.6-3.2-3.8-4.4-6c3.6-0.1,7.2-0.1,10.9-0.2
			c1.4,0,2.8-0.9,4-1.5c1.4-0.7,2.8-1.4,4.2-2.1c3.4-1.9,6.7-4,9.5-6.7c1.1-1,2.2-0.7,3.6-0.9c1.1-0.1,2.3-0.2,3.4-0.3
			c1.5-0.1,3-0.2,4.4-0.5c0.6-0.1,1.4-0.5,1.4-1.1c0-0.8-0.7-0.9-1.3-0.9c-0.9,0-1.9-0.1-2.8-0.1c-0.3,0-0.6,0-0.9-0.1
			s-0.5-0.3-0.6-0.6c-0.1-0.3,0-0.7,0.2-1c0.2-0.3,0.5-0.5,0.8-0.7c2.5-1.5,5.1-2.6,8-2.9c1.6-0.2,3.2-0.1,4.8-0.1
			c0.6,0,1.3,0.2,1.9-0.1c0.5-0.3,1-0.9,1.4-1.3C79.8,30.2,81.2,27.8,82,25.2z"/>
		<path d="M47.2,63.7c-0.3,0-0.6-0.1-0.9-0.3c-0.4-0.4-0.3-1-0.1-1.3c0.2-0.3,0.4-0.4,0.6-0.6l0.1-0.1c0.7-0.6,1.5-1.5,1.4-2.1
			c0-0.1-0.1-0.2-0.1-0.2c-0.1-0.1-0.6,0.1-1.3,0.6c-4.3,3.2-10.4,3.9-15.2,1.6c-1-0.5-1.9-1.1-2.7-1.7c-2-1.7-3.3-4.1-4.5-6.1
			L24,52.7l4.5-0.1c2.4,0,4.8-0.1,7.2-0.1c1,0,2.1-0.6,3-1c0.3-0.1,0.5-0.3,0.8-0.4c1.4-0.6,2.8-1.4,4.1-2.1
			c3.9-2.2,6.9-4.3,9.4-6.6c1-0.9,2-0.9,3-1c0.3,0,0.6,0,0.9,0l0.2,0c1.1-0.1,2.1-0.2,3.2-0.3c1.4-0.1,2.9-0.2,4.4-0.5
			c0.5-0.1,1-0.3,1-0.7c0-0.1,0-0.2-0.1-0.3c-0.1-0.1-0.3-0.1-0.7-0.1c-0.7,0-1.3,0-2-0.1c-0.3,0-0.6,0-0.9-0.1c-0.3,0-0.7,0-1-0.2
			c-0.4-0.2-0.8-0.5-0.9-0.8c-0.2-0.5-0.1-1,0.3-1.5c0.3-0.4,0.6-0.6,1-0.8c2.8-1.7,5.4-2.7,8.2-3c1.7-0.2,3.5-0.1,4.9-0.1
			c0.2,0,0.3,0,0.5,0c0.4,0,0.9,0.1,1.1-0.1c0.3-0.2,0.7-0.5,1-0.9c0.1-0.1,0.2-0.2,0.3-0.3c1.9-1.9,3.3-4.2,4-6.7l0,0
			c0.3-1,0.9-2.2,1.7-2.8c0.9-0.7,2.2-0.9,3-0.3c0.7,0.5,1.1,1.3,1.2,2.3c0,0.8-0.3,1.6-0.5,2.3c-1.4,3.6-3.3,7-5.9,9.9
			c0.6,2.7,0.6,5.7-0.1,8.7c-0.7,3.2-2.3,5.9-4.6,7.6l-0.8,0.6c-4,3.1-7.8,6-12.7,7.5c-2.5,0.8-5.1,1.3-8.3,1.8
			c-1.3,0.2-2.6,0.4-4.2,0.6c-0.7,0.1-1.4,0.2-2,0.2c-0.1,0-0.2,0-0.3,0C47.8,63.7,47.5,63.7,47.2,63.7z M48.1,58.1
			c0.1,0,0.3,0,0.4,0.1c0.3,0.1,0.6,0.4,0.7,1c0.2,1.4-1.4,2.8-1.7,3l-0.1,0.1c-0.1,0.1-0.3,0.2-0.4,0.3c0,0,0,0.1,0,0.1
			c0.1,0,0.6-0.1,0.9-0.1c0.1,0,0.2,0,0.3-0.1c0.7-0.1,1.4-0.2,2-0.2c1.6-0.2,2.9-0.4,4.2-0.6c3.2-0.5,5.8-1.1,8.2-1.8
			c4.7-1.5,8.5-4.3,12.4-7.4l0.8-0.6c2.1-1.6,3.6-4.1,4.2-7c0.6-3,0.6-5.9,0-8.5l-0.1-0.3l0.2-0.2c2.5-2.9,4.5-6.2,5.8-9.8
			c0.2-0.6,0.5-1.3,0.5-1.9c0-0.5-0.2-1.2-0.7-1.5c-0.6-0.4-1.4-0.2-1.9,0.2c-0.6,0.4-1.1,1.5-1.3,2.3l0,0c-0.8,2.7-2.3,5.1-4.3,7.1
			c-0.1,0.1-0.2,0.2-0.3,0.3c-0.4,0.4-0.8,0.8-1.2,1.1c-0.6,0.3-1.2,0.2-1.7,0.2c-0.1,0-0.3,0-0.4,0c-1.4-0.1-3.1-0.1-4.7,0.1
			c-2.6,0.3-5.1,1.2-7.8,2.9c-0.3,0.2-0.5,0.3-0.7,0.5c-0.1,0.2-0.2,0.4-0.1,0.5c0,0.1,0.2,0.2,0.3,0.3c0.2,0.1,0.5,0.1,0.7,0.1
			c0.3,0,0.6,0,0.9,0.1c0.6,0,1.3,0.1,1.9,0.1c0.4,0,1,0,1.4,0.4c0.3,0.2,0.4,0.6,0.4,1c0,0.8-0.7,1.4-1.8,1.6
			c-1.5,0.3-3,0.4-4.5,0.5c-1.1,0.1-2.1,0.2-3.2,0.3l-0.2,0c-0.3,0-0.7,0-1,0c-0.9,0-1.6,0-2.3,0.7c-2.5,2.4-5.6,4.5-9.6,6.7
			c-1.4,0.8-2.8,1.5-4.2,2.1c-0.3,0.1-0.5,0.2-0.8,0.4c-1.1,0.5-2.3,1.1-3.5,1.1c-2.4,0-4.8,0.1-7.2,0.1l-2.8,0
			c1.1,1.9,2.2,3.8,3.9,5.1c0.7,0.6,1.6,1.1,2.5,1.6c4.5,2.1,10.2,1.5,14.2-1.5C46.7,58.6,47.4,58.1,48.1,58.1z"/>
	</g>
	<g>
		<path d="M116.5,48.7l-0.3-0.7c-1.1-2.3-2.1-4.5-1.7-6.9c0-0.3,0-0.5,0-0.5c-1.2-9.5-6-16.5-14.3-21.1c-0.2-0.1-0.5-0.4-0.6-0.6
			C94.2,9.3,85.9,4.5,74.9,4.5c-0.5,0-1-0.1-1.4-0.3c-9.4-5.5-18.9-5.5-28.3,0c-0.4,0.2-0.9,0.4-1.3,0.4h0h-0.2
			c-10.9,0-19.2,4.9-24.6,14.4c-0.2,0.3-0.4,0.5-0.6,0.6C8.9,24.8,4,33,4,44.1c0,0.5-0.2,1.2-0.5,1.7c-5.2,8.9-5.3,18-0.5,27.1
			L3.2,73c0.7,1.3,1.1,2.1,0.8,3.2l0,0.1l0,0.2c0.5,10.4,5.3,18.2,14.2,23.2c0.4,0.2,0.8,0.6,1,0.9c5.3,9.5,13.6,14.3,24.5,14.3
			c0.5,0,1.1,0.1,1.6,0.4c4.6,2.7,9.3,4,14,4c4.6,0,9.2-1.3,13.8-3.8c0.7-0.4,1.5-0.6,2.1-0.6c10.8-0.1,18.9-4.9,24.3-14.4
			c0.2-0.3,0.4-0.6,0.7-0.7c9.5-5.3,14.4-13.5,14.4-24.4c0-0.6,0.2-1.4,0.5-1.9C119.9,65.5,120.3,57.1,116.5,48.7 M21.3,24.8
			c1.4-0.6,2.3-1.5,2.9-2.8c3.8-7.5,9.9-11.3,18.6-11.6c2.4,0.6,4.3-0.5,5.8-1.4C56,4.7,63.5,4.9,70.8,9.6c1.1,0.7,2.2,1,3.5,1
			c9.2-0.4,15.9,3.5,20.2,11.9c0.4,0.8,1.2,1.6,2,2c6.7,3.3,10.7,8.7,11.8,16c0.1,0.8,0.1,1.7,0.1,2.6c0,0.7,0,1.4,0,2.1
			c0.1,0.8,0.3,1.8,0.8,2.7c5,7.5,5,16.1,0.1,23.6c-0.6,0.9-0.9,2.1-0.8,3.2c0.3,6-1.4,11.1-5.3,15.4c-1.8,2-3.9,3.5-6.2,4.6
			c-1.2,0.6-2.1,1.4-2.6,2.6c-3.7,7.7-11.3,12.1-20,11.6c-1.2-0.1-2.4,0.3-3.3,0.9c-7.3,4.8-16,4.9-23.4,0c-0.9-0.6-2.1-1-3.2-1
			c-0.4,0-0.7,0-1,0c-8.9,0-15.2-3.9-19.4-12c-0.4-0.8-1.3-1.6-2.2-2.1c-6-3-9.8-7.7-11.2-14.1c-0.4-1.8-0.4-3.8-0.4-5.8
			c0-1.1-0.1-2.4-1-3.8c-4.8-6.9-4.8-16,0-23c0.8-1.2,1.1-2.4,1-3.7C9.3,36.3,13.9,28.4,21.3,24.8"/>
		<path d="M59.2,119.9c-4.8,0-9.6-1.4-14.3-4.1c-0.4-0.2-0.9-0.3-1.3-0.3c-11.2,0-19.6-4.9-25-14.6c-0.1-0.2-0.5-0.5-0.8-0.7
			C8.8,95,4,87.1,3.4,76.5l0-0.2L3.5,76c0.2-0.8-0.1-1.5-0.8-2.8L2.6,73c-5-9.2-4.8-18.5,0.5-27.6c0.2-0.4,0.4-1,0.4-1.4
			c0.1-11.2,5-19.6,14.8-25c0.1-0.1,0.3-0.2,0.4-0.5C24.2,8.9,32.6,4,43.7,4h0.2c0.3,0,0.7-0.1,1.1-0.3c9.5-5.6,19.2-5.6,28.8,0
			C74,3.9,74.4,4,74.9,4c11.2,0,19.6,5,25.1,14.7c0.1,0.2,0.3,0.3,0.4,0.4c8.5,4.6,13.4,11.8,14.6,21.5c0,0.1,0.1,0.4,0,0.7
			c-0.3,2.3,0.7,4.4,1.7,6.6l0.3,0.7c3.9,8.5,3.4,17.1-1.5,25.4c-0.3,0.5-0.4,1.1-0.4,1.6c-0.1,11-5,19.4-14.7,24.8
			c-0.2,0.1-0.4,0.3-0.5,0.5c-5.4,9.6-13.7,14.5-24.7,14.6c-0.6,0-1.3,0.2-1.9,0.5C68.6,118.6,63.9,119.9,59.2,119.9z M4.4,76.4
			L4.4,76.4c0.5,10.3,5.2,18,14,22.9c0.5,0.3,0.9,0.7,1.2,1.1c5.2,9.3,13.4,14.1,24.1,14.1c0.6,0,1.3,0.2,1.8,0.5
			c8.9,5.2,18.2,5.3,27.4,0.2c0.7-0.4,1.6-0.6,2.4-0.7c10.6-0.1,18.6-4.8,23.8-14.1c0.2-0.4,0.6-0.7,0.9-0.9
			c9.3-5.2,14.1-13.3,14.1-23.9c0-0.7,0.2-1.5,0.6-2.1c4.7-8,5.2-16.3,1.4-24.5v0l-0.3-0.7c-1.1-2.4-2.1-4.6-1.8-7.2
			c0-0.2,0-0.3,0-0.4c-1.2-9.3-5.9-16.3-14.1-20.7c-0.3-0.2-0.6-0.5-0.8-0.8C93.8,9.8,85.7,5,74.9,5c-0.7,0-1.2-0.1-1.6-0.4
			c-9.2-5.4-18.6-5.4-27.8,0C44.9,4.8,44.4,5,43.9,5h-0.2C33,5,24.8,9.7,19.6,19.1c-0.2,0.4-0.5,0.7-0.8,0.8
			C9.4,25.1,4.5,33.2,4.5,44.1c0,0.6-0.2,1.3-0.5,1.9c-5.1,8.8-5.3,17.7-0.5,26.6l0.1,0.2C4.3,74.2,4.8,75.1,4.4,76.4L4.4,76.4z
			 M59.3,114c-4.1,0-8.2-1.2-12-3.7c-0.8-0.5-2-0.9-3-0.9c-0.2,0-0.4,0-0.6,0c-0.1,0-0.3,0-0.4,0c-9.1,0-15.6-4-19.8-12.3
			c-0.4-0.7-1.2-1.5-2-1.9c-6.2-3.1-10-7.9-11.5-14.4c-0.4-1.9-0.4-4-0.4-6c0-1.1-0.1-2.3-0.9-3.5c-4.9-7.1-4.9-16.4,0-23.6
			c0.7-1.1,1-2.1,0.9-3.4C8.8,36.1,13.5,28,21.1,24.4c1.3-0.6,2.1-1.4,2.7-2.6c3.9-7.6,10.2-11.5,19.1-11.9l0.1,0l0.1,0
			c2.1,0.5,3.8-0.4,5.3-1.3l0.1-0.1C56,4.2,63.6,4.4,71,9.1c1,0.6,2.1,0.9,3.3,0.9c9.4-0.4,16.3,3.7,20.7,12.2
			c0.4,0.7,1.1,1.4,1.8,1.8c6.9,3.4,10.9,8.9,12.1,16.4c0.1,0.8,0.1,1.6,0.1,2.5l0,0.1c0,0.6,0,1.4,0,2.1c0.1,0.7,0.2,1.7,0.7,2.5
			c5.1,7.7,5.1,16.5,0.1,24.1c-0.5,0.8-0.8,1.9-0.8,2.9c0.3,6.2-1.4,11.3-5.5,15.8c-1.8,2-4,3.6-6.4,4.7c-1.1,0.5-1.9,1.3-2.4,2.4
			c-3.8,7.8-11.6,12.4-20.5,11.9c-1-0.1-2.1,0.2-3,0.8C67.5,112.8,63.4,114,59.3,114z M44.4,108.4c1.2,0,2.5,0.4,3.5,1
			c7.2,4.7,15.7,4.7,22.8,0c1.1-0.7,2.4-1.1,3.6-1c8.5,0.5,15.9-3.9,19.5-11.3c0.6-1.3,1.6-2.2,2.9-2.9c2.3-1.1,4.3-2.6,6.1-4.5
			c3.8-4.3,5.5-9.2,5.2-15.1c-0.1-1.2,0.3-2.5,0.9-3.5c4.8-7.3,4.8-15.7-0.1-23c-0.6-1-0.8-2.1-0.9-2.9c-0.1-0.8,0-1.5,0-2.2l0-0.1
			c0-0.8,0-1.6-0.1-2.3c-1.1-7.2-5-12.5-11.5-15.7c-0.9-0.5-1.8-1.3-2.2-2.2c-4.2-8.2-10.7-12-19.8-11.7c-1.5,0-2.7-0.3-3.8-1.1
			c-7.1-4.5-14.4-4.7-21.6-0.6l-0.1,0.1c-1.6,0.9-3.5,2-6,1.4c-8.5,0.4-14.4,4.1-18.1,11.4c-0.7,1.4-1.7,2.3-3.1,3l0,0
			c-7.3,3.5-11.7,11.2-11,19.2c0.1,1.4-0.2,2.8-1.1,4c-4.6,6.8-4.6,15.7,0,22.4c1,1.4,1.1,2.8,1.1,4c0,1.9,0,3.9,0.4,5.7
			c1.4,6.2,5.1,10.8,11,13.7c1,0.5,2,1.4,2.4,2.3c4.1,7.9,10.3,11.7,18.9,11.7c0.1,0,0.3,0,0.4,0C43.9,108.4,44.1,108.4,44.4,108.4
			C44.4,108.4,44.4,108.4,44.4,108.4z"/>
	</g>
	<g>
		<path d="M84.8,76c-3.5,0-5.2-0.3-6.9-0.7c-1.6-0.3-3.2-0.6-6.3-0.6c-3.2,0-4.7,0.3-6.3,0.6c-1.7,0.3-3.4,0.7-6.9,0.7
			c-3.5,0-5.2-0.3-6.9-0.7c-1.6-0.3-3.2-0.6-6.3-0.6c-3.2,0-4.7,0.3-6.3,0.6c-1.7,0.3-3.4,0.7-6.9,0.7c-3.4,0-5.2-0.3-6.9-0.7
			c-1.6-0.3-3.2-0.6-6.3-0.6c-0.8,0-1.5-0.7-1.5-1.5s0.7-1.5,1.5-1.5c3.4,0,5.2,0.3,6.9,0.7c1.6,0.3,3.2,0.6,6.3,0.6
			c3.2,0,4.7-0.3,6.3-0.6c1.7-0.3,3.4-0.7,6.9-0.7c3.5,0,5.2,0.3,6.9,0.7c1.6,0.3,3.2,0.6,6.3,0.6c3.2,0,4.7-0.3,6.3-0.6
			c1.7-0.3,3.4-0.7,6.9-0.7c3.5,0,5.2,0.3,6.9,0.7c1.6,0.3,3.2,0.6,6.3,0.6s4.7-0.3,6.3-0.6c1.7-0.3,3.4-0.7,6.9-0.7
			c0.8,0,1.5,0.7,1.5,1.5s-0.7,1.5-1.5,1.5c-3.2,0-4.7,0.3-6.3,0.6C90,75.7,88.2,76,84.8,76z"/>
	</g>
	<g>
		<path d="M71.8,90c-3.5,0-5.3-0.3-7-0.7c-1.7-0.3-3.2-0.6-6.4-0.6c-3.2,0-4.8,0.3-6.4,0.6c-1.7,0.3-3.5,0.7-7,0.7
			c-3.5,0-5.3-0.3-7-0.7c-1.7-0.3-3.2-0.6-6.4-0.6c-0.8,0-1.5-0.7-1.5-1.5s0.7-1.5,1.5-1.5c3.5,0,5.3,0.3,7,0.7
			c1.7,0.3,3.2,0.6,6.4,0.6c3.2,0,4.8-0.3,6.4-0.6c1.7-0.3,3.5-0.7,7-0.7c3.5,0,5.3,0.3,7,0.7c1.7,0.3,3.2,0.6,6.4,0.6
			s4.8-0.3,6.4-0.6c1.7-0.3,3.5-0.7,7-0.7c0.8,0,1.5,0.7,1.5,1.5s-0.7,1.5-1.5,1.5c-3.2,0-4.8,0.3-6.4,0.6C77,89.7,75.3,90,71.8,90z
			"/>
	</g>
</g>
</svg>
