<?xml version="1.0" encoding="utf-8"?>
<!-- Generator: Adobe Illustrator 21.0.0, SVG Export Plug-In . SVG Version: 6.00 Build 0)  -->
<svg version="1.1" id="圖層_1" xmlns="http://www.w3.org/2000/svg" xmlns:xlink="http://www.w3.org/1999/xlink" x="0px" y="0px"
	 viewBox="0 0 46 45" style="enable-background:new 0 0 46 45;" xml:space="preserve">
<style type="text/css">
	.st0{fill:none;}
	.st1{fill:#E60012;}
</style>
<g>
	<g>
		<polygon class="st0" points="16.4,18.8 16.4,19.4 16.4,18.8 		"/>
		<path d="M16.4,18.8l0-0.8l0,0c0-0.2,0-0.3,0-0.5c0-0.6,0-1.3,0-1.9c0-0.8,0-1.5,0-2.3l-1.4-0.2c0,0.2,0.1,0.4,0.1,0.7
			c0.2,1,0.1,2,0.1,3c0,0.4,0,0.8,0,1.2h-3.8l0.2,0.8h3.5v1.3c-0.2,5.1-0.6,10.5-4,14.3c-0.1,0.1-0.1,0.1-0.1,0.2
			c0,0.1,0.1,0.2,0.2,0.2c0.5,0,4-3.4,4.7-9.2c0.2-1.8,0.4-3.8,0.5-5.9v-0.3L16.4,18.8L16.4,18.8z"/>
		<path d="M33.6,32.9c-0.2-0.1-0.3-0.5-0.3-1.1l-1.2,1c-0.3,0.3-0.7,0.3-1.4,0.4l-3.8,0.1l-4.2-0.1c-0.8,0-2,0-2-1.1V19.2
			c0-0.2,0.1-0.3,0.3-0.4s0.3-0.2,0.3-0.4s-0.1-0.3-0.2-0.4L20,17.2l-0.6,0.8h-1.9v0.8h1.9v13.3c0,2,1.2,2.4,8.1,2.4l3.7-0.1
			l1.9-0.2c0.5-0.1,0.8-0.4,0.8-0.8C34,33.2,33.8,33,33.6,32.9z"/>
	</g>
	<rect x="25.3" y="14.9" class="st1" width="6.8" height="6.8"/>
	<g>
		<path d="M0,0v45h46V18.9V0H0z M23,35.1c-7,0-12.6-5.7-12.6-12.6S16,9.9,23,9.9c2.9,0,5.5,1,7.6,2.5l0.4-0.5l1.2,0.8
			c0.1,0,0.1,0.1,0.1,0.3c0,0.3-0.2,0.4-0.3,0.5c0,0,0,0,0,0c2.4,2.3,3.8,5.5,3.8,9C35.6,29.5,30,35.1,23,35.1z"/>
		<path d="M23,28.4c0,0.4,0.1,0.6,0.3,0.6c0.7-0.2,1-0.3,1-0.6v-1v-0.4v-0.8v-6v-0.8v-6v-0.8l-1.3-1V28.4z"/>
		<path d="M25.4,12.8v0.8h5v6h-5v0.8h5v6h-5v0.8h5v1.3c0,0.5,0.1,0.5,1,0.3c0.2-0.1,0.3-0.2,0.3-0.3V13.7c0-0.1,0.1-0.2,0.2-0.2
			c0,0,0,0,0,0c0.2-0.1,0.3-0.2,0.3-0.5c0-0.1,0-0.2-0.1-0.3l-1.2-0.8l-0.4,0.5l-0.3,0.4H25.4z"/>
	</g>
</g>
</svg>
